<svg data-v-fde0c5aa="" xmlns="http://www.w3.org/2000/svg" viewBox="0 0 300 300" class="iconLeftSlogan"><!----><defs data-v-fde0c5aa=""><!----></defs><rect data-v-fde0c5aa="" fill="#3D1240" x="0" y="0" width="300px" height="300px" class="logo-background-square"></rect><defs data-v-fde0c5aa=""><!----></defs><g data-v-fde0c5aa="" id="ecf2efe7-84d6-4ca3-8b0f-cd18622bb943" fill="#DDBA2E" transform="matrix(1.2085455503764209,0,0,1.2085455503764209,98.4053700189358,127.30422943126806)"><path d="M4.12 14.52C6.41 14.52 7.67 13.31 7.67 11.51C7.67 10.12 6.92 9.11 5.15 8.79L4.12 8.61C2.91 8.41 2.49 7.97 2.49 7.17C2.49 6.22 3.12 5.71 4.27 5.71C5.35 5.71 6.06 6.15 6.59 6.80L7.57 5.82C6.90 4.94 5.81 4.41 4.27 4.41C2.20 4.41 0.91 5.40 0.91 7.24C0.91 8.54 1.57 9.65 3.42 9.95L4.48 10.12C5.66 10.32 6.09 10.75 6.09 11.59C6.09 12.63 5.40 13.22 4.17 13.22C3.12 13.22 2.30 12.80 1.55 11.91L0.55 12.88C1.29 13.86 2.42 14.52 4.12 14.52ZM9.58 14.35L11.10 14.35L11.10 9.45C11.10 8.61 11.89 8.20 12.67 8.20C13.65 8.20 14.17 8.78 14.17 9.93L14.17 14.35L15.69 14.35L15.69 9.70C15.69 7.95 14.71 6.96 13.26 6.96C12.07 6.96 11.48 7.60 11.17 8.36L11.10 8.36L11.10 3.99L9.58 3.99ZM17.86 14.35L23.93 14.35L23.93 13.12L21.31 13.12L21.31 10.42C21.31 9.41 21.97 8.58 23.21 8.58L24.64 8.58L24.64 7.13L23.77 7.13C22.30 7.13 21.67 8.04 21.39 9.04L21.31 9.04L21.31 7.13L17.86 7.13L17.86 8.36L19.78 8.36L19.78 13.12L17.86 13.12ZM29.85 5.81C30.60 5.81 30.88 5.45 30.88 4.98L30.88 4.69C30.88 4.23 30.60 3.86 29.83 3.86C29.08 3.86 28.80 4.23 28.80 4.69L28.80 4.98C28.80 5.45 29.08 5.81 29.85 5.81ZM26.61 14.35L32.91 14.35L32.91 13.12L30.60 13.12L30.60 7.13L26.61 7.13L26.61 8.36L29.08 8.36L29.08 13.12L26.61 13.12ZM34.97 17.15L37.83 17.15C39.09 17.15 39.69 16.39 39.69 15.32L39.69 7.13L34.89 7.13L34.89 8.36L38.16 8.36L38.16 15.92L34.97 15.92ZM38.93 5.81C39.69 5.81 39.97 5.45 39.97 4.98L39.97 4.69C39.97 4.23 39.69 3.86 38.92 3.86C38.16 3.86 37.88 4.23 37.88 4.69L37.88 4.98C37.88 5.45 38.16 5.81 38.93 5.81ZM49.83 14.35L49.83 13.15L48.92 13.15L48.92 9.52C48.92 7.87 47.80 6.96 45.98 6.96C44.45 6.96 43.47 7.62 43.06 8.40L43.97 9.14C44.37 8.54 44.91 8.15 45.84 8.15C46.87 8.15 47.39 8.65 47.39 9.62L47.39 10.18L46.00 10.18C43.86 10.18 42.84 10.93 42.84 12.33C42.84 13.69 43.79 14.52 45.26 14.52C46.40 14.52 47.15 14 47.43 13.13L47.50 13.13C47.59 13.86 48.02 14.35 48.89 14.35ZM45.70 13.40C44.88 13.40 44.38 13.06 44.38 12.42L44.38 12.14C44.38 11.49 44.91 11.14 46.03 11.14L47.39 11.14L47.39 12.19C47.39 12.91 46.68 13.40 45.70 13.40ZM53.10 14.35L53.10 9.45C53.10 8.61 53.89 8.20 54.67 8.20C55.65 8.20 56.17 8.78 56.17 9.93L56.17 14.35L57.69 14.35L57.69 9.70C57.69 7.95 56.71 6.96 55.26 6.96C54.07 6.96 53.48 7.60 53.17 8.36L53.10 8.36L53.10 7.13L51.58 7.13L51.58 14.35ZM75.25 5.89L75.25 4.58L67.55 4.58L67.55 5.89L70.62 5.89L70.62 14.35L72.18 14.35L72.18 5.89ZM76.66 14.35L82.73 14.35L82.73 13.12L80.11 13.12L80.11 10.42C80.11 9.41 80.77 8.58 82.01 8.58L83.44 8.58L83.44 7.13L82.57 7.13C81.10 7.13 80.47 8.04 80.19 9.04L80.11 9.04L80.11 7.13L76.66 7.13L76.66 8.36L78.58 8.36L78.58 13.12L76.66 13.12ZM88.65 5.81C89.40 5.81 89.68 5.45 89.68 4.98L89.68 4.69C89.68 4.23 89.40 3.86 88.63 3.86C87.88 3.86 87.60 4.23 87.60 4.69L87.60 4.98C87.60 5.45 87.88 5.81 88.65 5.81ZM85.41 14.35L91.71 14.35L91.71 13.12L89.40 13.12L89.40 7.13L85.41 7.13L85.41 8.36L87.88 8.36L87.88 13.12L85.41 13.12ZM93.51 17.15L95.03 17.15L95.03 13.12L95.12 13.12C95.54 13.99 96.24 14.52 97.30 14.52C98.99 14.52 100.09 13.22 100.09 10.74C100.09 8.26 98.99 6.96 97.30 6.96C96.24 6.96 95.54 7.49 95.12 8.36L95.03 8.36L95.03 7.13L93.51 7.13ZM96.67 13.27C95.79 13.27 95.03 12.82 95.03 11.94L95.03 9.53C95.03 8.65 95.79 8.20 96.67 8.20C97.82 8.20 98.48 8.97 98.48 10.15L98.48 11.33C98.48 12.50 97.82 13.27 96.67 13.27ZM108.63 14.35L108.63 13.15L107.72 13.15L107.72 9.52C107.72 7.87 106.60 6.96 104.78 6.96C103.25 6.96 102.27 7.62 101.86 8.40L102.77 9.14C103.17 8.54 103.71 8.15 104.64 8.15C105.67 8.15 106.19 8.65 106.19 9.62L106.19 10.18L104.80 10.18C102.66 10.18 101.64 10.93 101.64 12.33C101.64 13.69 102.59 14.52 104.06 14.52C105.20 14.52 105.95 14 106.23 13.13L106.30 13.13C106.39 13.86 106.82 14.35 107.69 14.35ZM104.50 13.40C103.68 13.40 103.18 13.06 103.18 12.42L103.18 12.14C103.18 11.49 103.71 11.14 104.83 11.14L106.19 11.14L106.19 12.19C106.19 12.91 105.48 13.40 104.50 13.40ZM116.59 14.35L116.59 13.12L113.51 13.12L113.51 8.36L116.59 8.36L116.59 7.13L113.51 7.13L113.51 4.58L112.08 4.58L112.08 6.38C112.08 6.94 111.87 7.13 111.34 7.13L109.76 7.13L109.76 8.36L111.99 8.36L111.99 12.52C111.99 13.59 112.57 14.35 113.83 14.35ZM118.78 14.35L120.30 14.35L120.30 9.45C120.30 8.61 121.09 8.20 121.87 8.20C122.85 8.20 123.37 8.78 123.37 9.93L123.37 14.35L124.89 14.35L124.89 9.70C124.89 7.95 123.91 6.96 122.46 6.96C121.27 6.96 120.68 7.60 120.37 8.36L120.30 8.36L120.30 3.99L118.78 3.99ZM130.65 5.81C131.40 5.81 131.68 5.45 131.68 4.98L131.68 4.69C131.68 4.23 131.40 3.86 130.63 3.86C129.88 3.86 129.60 4.23 129.60 4.69L129.60 4.98C129.60 5.45 129.88 5.81 130.65 5.81ZM127.41 14.35L133.71 14.35L133.71 13.12L131.40 13.12L131.40 7.13L127.41 7.13L127.41 8.36L129.88 8.36L129.88 13.12L127.41 13.12Z"></path></g><defs data-v-fde0c5aa=""><!----></defs><g data-v-fde0c5aa="" id="7927aebd-c332-40c4-b809-cd99356218e2" stroke="none" fill="#DDBA2E" transform="matrix(0.4697863601775518,0,0,0.4697863601775518,39.56122042847217,128.870783906081)"><path d="M25.45 35.378a9.036 9.036 0 0 0-7.559 4.081c.312-.162.66-.262 1.035-.262a2.266 2.266 0 0 1 0 4.53 2.258 2.258 0 0 1-2.189-1.715 9.047 9.047 0 0 0-.336 2.416 9.05 9.05 0 1 0 9.049-9.05zM83.196 42.012a2.26 2.26 0 0 1-4.453-.551 2.266 2.266 0 0 1 2.265-2.265c.375 0 .723.1 1.033.261a9.036 9.036 0 0 0-7.558-4.08 9.05 9.05 0 1 0 9.049 9.049c0-.837-.123-1.644-.336-2.414zM83.196 42.012c.045-.177.075-.359.075-.55"></path><path d="M49.967 82.666c-5.319 0-8.09-5.439-13.048-5.22C12.197 78.545.934 65.38.934 47.642c0-13.047 12.636-22.937 12.636-22.937S3.956 11.52 9.449 7.674c3.685-2.524 16.402 8.09 22.8 8.516 8.404.558 10.902-1.373 17.718-1.373M24.9 32.34c-6.978 0-12.635 5.657-12.635 12.636 0 6.979 5.657 12.635 12.635 12.635 6.979 0 12.637-5.656 12.637-12.635-10.17-10.667-6.524-7.085-12.637-12.636zm25.067-17.524c6.816 0 9.314 1.931 17.718 1.373 6.398-.426 19.114-11.04 22.801-8.516 5.494 3.846-4.121 17.031-4.121 17.031S99 34.594 99 47.642c0 17.738-11.262 30.903-35.984 29.805-4.959-.22-7.73 5.22-13.049 5.22m12.429-37.691c0 6.979 5.657 12.635 12.637 12.635 6.979 0 12.635-5.656 12.635-12.635S82.012 32.34 75.033 32.34c-6.112 5.551-2.467 1.969-12.637 12.636zm-6.203 3.994c-2.892 2.891-3.939 3.988-6.227 3.988-2.287 0-3.335-1.097-6.227-3.988-.96-.96-1.919 6.608-.229 10.894.468 1.19 6.455 8.699 6.455 8.699s5.986-7.509 6.456-8.699c1.691-4.286.733-11.854-.228-10.894z"></path></g><defs data-v-fde0c5aa=""><!----></defs><g data-v-fde0c5aa="" id="a57742c6-8974-4f35-9d0d-4b382bb7951e" fill="#DDBA2E" transform="matrix(0.6880875942968508,0,0,0.6880875942968508,98.87740555882642,155.76009555455167)"><path d="M0.28 13.33L0.28 13.33L0.28 13.33Q0.28 13.13 0.49 13.06L0.49 13.06L0.49 13.06Q0.94 12.89 1.27 12.31L1.27 12.31L1.27 12.31Q1.61 11.73 2.94 8.83L2.94 8.83L2.94 8.83Q4.31 5.87 5.36 3.63L5.36 3.63L5.36 3.63Q5.46 3.42 5.54 3.36L5.54 3.36L5.54 3.36Q5.61 3.30 5.78 3.30L5.78 3.30L5.78 3.30Q5.91 3.30 5.95 3.36L5.95 3.36L5.95 3.36Q5.99 3.42 6.13 3.82L6.13 3.82L6.13 3.82Q6.22 4.06 6.28 4.23L6.28 4.23L6.28 4.23Q6.34 4.40 6.48 4.77L6.48 4.77L6.48 4.77Q6.62 5.15 6.79 5.56L6.79 5.56L6.79 5.56Q7.24 6.66 8.34 9.22L8.34 9.22L8.34 9.22Q9.44 11.77 9.53 11.98L9.53 11.98L9.53 11.98Q9.77 12.46 10.07 12.71L10.07 12.71L10.07 12.71Q10.36 12.95 10.58 12.97L10.58 12.97L10.58 12.97Q10.79 12.99 10.94 13.04L10.94 13.04L10.94 13.04Q11.09 13.09 11.09 13.26L11.09 13.26L11.09 13.26Q11.09 13.47 10.71 13.47L10.71 13.47L10.71 13.47Q10.56 13.47 10.11 13.43L10.11 13.43L10.11 13.43Q9.66 13.38 9.45 13.38L9.45 13.38L9.45 13.38Q9.18 13.38 8.76 13.41L8.76 13.41L8.76 13.41Q8.34 13.44 8.15 13.44L8.15 13.44L8.15 13.44Q7.71 13.44 7.59 13.40L7.59 13.40L7.59 13.40Q7.48 13.37 7.48 13.24L7.48 13.24L7.48 13.24Q7.48 13.15 7.59 13.08L7.59 13.08L7.59 13.08Q7.70 13.02 7.83 13.00L7.83 13.00L7.83 13.00Q7.95 12.98 8.06 12.87L8.06 12.87L8.06 12.87Q8.18 12.77 8.18 12.59L8.18 12.59L8.18 12.59Q8.18 12.28 7.83 11.33L7.83 11.33L7.83 11.33Q7.48 10.37 7.24 9.93L7.24 9.93L7.24 9.93Q7.11 9.69 6.66 9.69L6.66 9.69L6.66 9.69Q6.59 9.69 6.05 9.70L6.05 9.70L6.05 9.70Q5.50 9.72 4.97 9.72L4.97 9.72L4.23 9.72L4.23 9.72Q3.60 9.72 3.44 9.79L3.44 9.79L3.44 9.79Q3.28 9.86 3.15 10.12L3.15 10.12L3.15 10.12Q3.07 10.30 2.87 10.70L2.87 10.70L2.87 10.70Q2.67 11.10 2.60 11.26L2.60 11.26L2.60 11.26Q2.53 11.41 2.43 11.65L2.43 11.65L2.43 11.65Q2.32 11.90 2.29 12.05L2.29 12.05L2.29 12.05Q2.25 12.19 2.25 12.31L2.25 12.31L2.25 12.31Q2.25 12.63 2.42 12.80L2.42 12.80L2.42 12.80Q2.58 12.96 2.77 12.98L2.77 12.98L2.77 12.98Q2.97 13.01 3.13 13.06L3.13 13.06L3.13 13.06Q3.29 13.12 3.29 13.26L3.29 13.26L3.29 13.26Q3.29 13.36 3.25 13.40L3.25 13.40L3.25 13.40Q3.21 13.45 3.05 13.45L3.05 13.45L3.05 13.45Q2.97 13.45 2.57 13.45L2.57 13.45L2.57 13.45Q2.17 13.44 1.89 13.44L1.89 13.44L1.89 13.44Q1.58 13.44 1.20 13.47L1.20 13.47L1.20 13.47Q0.81 13.50 0.69 13.50L0.69 13.50L0.69 13.50Q0.28 13.50 0.28 13.33ZM3.79 8.71L3.79 8.71L3.79 8.71Q3.79 8.89 3.92 8.93L3.92 8.93L3.92 8.93Q4.05 8.97 4.51 8.97L4.51 8.97L4.94 8.97L6.27 8.96L6.27 8.96Q6.82 8.96 6.82 8.74L6.82 8.74L6.82 8.74Q6.82 8.55 6.13 7.01L6.13 7.01L6.13 7.01Q5.45 5.46 5.26 5.46L5.26 5.46L5.26 5.46Q5.14 5.46 4.47 7.01L4.47 7.01L4.47 7.01Q3.79 8.55 3.79 8.71ZM28.63 3.71L28.63 3.71L28.63 3.71Q28.63 3.51 29.01 3.51L29.01 3.51L29.01 3.51Q29.09 3.51 29.55 3.54L29.55 3.54L29.55 3.54Q30.00 3.56 30.55 3.56L30.55 3.56L30.55 3.56Q30.94 3.56 31.33 3.54L31.33 3.54L31.33 3.54Q31.72 3.51 31.75 3.51L31.75 3.51L31.75 3.51Q31.88 3.51 31.91 3.55L31.91 3.55L31.91 3.55Q31.95 3.58 31.95 3.68L31.95 3.68L31.95 3.68Q31.95 3.77 31.65 3.92L31.65 3.92L31.65 3.92Q31.35 4.07 31.35 4.34L31.35 4.34L31.35 4.34Q31.35 4.47 31.40 4.65L31.40 4.65L31.40 4.65Q31.46 4.83 31.63 5.22L31.63 5.22L31.63 5.22Q31.79 5.61 31.98 6.03L31.98 6.03L31.98 6.03Q32.17 6.45 32.56 7.33L32.56 7.33L32.56 7.33Q32.96 8.20 33.33 9.07L33.33 9.07L33.33 9.07Q33.43 9.30 33.62 9.74L33.62 9.74L33.62 9.74Q33.81 10.18 33.93 10.46L33.93 10.46L33.93 10.46Q34.05 10.74 34.19 11.05L34.19 11.05L34.19 11.05Q34.33 11.37 34.42 11.52L34.42 11.52L34.42 11.52Q34.51 11.68 34.55 11.68L34.55 11.68L34.55 11.68Q34.61 11.68 35 10.81L35 10.81L35 10.81Q35.39 9.94 35.70 9.17L35.70 9.17L35.70 9.17Q35.76 9.04 35.83 8.89L35.83 8.89L35.83 8.89Q35.91 8.74 35.95 8.63L35.95 8.63L35.95 8.63Q35.98 8.53 35.98 8.41L35.98 8.41L35.98 8.41Q35.98 8.25 35.14 6.36L35.14 6.36L35.14 6.36Q34.30 4.48 34.06 4.21L34.06 4.21L34.06 4.21Q34.01 4.14 33.95 4.10L33.95 4.10L33.95 4.10Q33.89 4.06 33.84 4.02L33.84 4.02L33.84 4.02Q33.80 3.99 33.76 3.97L33.76 3.97L33.76 3.97Q33.73 3.95 33.67 3.94L33.67 3.94L33.67 3.94Q33.61 3.93 33.59 3.93L33.59 3.93L33.59 3.93Q33.57 3.93 33.51 3.93L33.51 3.93L33.51 3.93Q33.45 3.92 33.43 3.92L33.43 3.92L33.43 3.92Q33.04 3.88 32.96 3.84L32.96 3.84L32.96 3.84Q32.87 3.81 32.87 3.70L32.87 3.70L32.87 3.70Q32.87 3.50 33.28 3.50L33.28 3.50L33.28 3.50Q33.36 3.50 33.82 3.53L33.82 3.53L33.82 3.53Q34.29 3.56 34.82 3.56L34.82 3.56L34.82 3.56Q34.85 3.56 35.20 3.53L35.20 3.53L35.20 3.53Q35.55 3.50 35.74 3.50L35.74 3.50L35.74 3.50Q36.16 3.50 36.16 3.61L36.16 3.61L36.16 3.61Q36.16 3.70 36.01 3.78L36.01 3.78L36.01 3.78Q35.85 3.86 35.71 4.00L35.71 4.00L35.71 4.00Q35.56 4.13 35.56 4.33L35.56 4.33L35.56 4.33Q35.56 4.59 35.99 5.57L35.99 5.57L35.99 5.57Q36.02 5.63 36.18 6.03L36.18 6.03L36.18 6.03Q36.34 6.44 36.47 6.71L36.47 6.71L36.47 6.71Q36.60 6.99 36.65 6.99L36.65 6.99L36.65 6.99Q36.76 6.99 37.21 5.76L37.21 5.76L37.21 5.76Q37.66 4.54 37.66 4.31L37.66 4.31L37.66 4.31Q37.66 4.06 37.45 3.96L37.45 3.96L37.45 3.96Q37.24 3.85 37.03 3.80L37.03 3.80L37.03 3.80Q36.82 3.75 36.82 3.64L36.82 3.64L36.82 3.64Q36.82 3.49 37.13 3.49L37.13 3.49L37.13 3.49Q37.21 3.49 37.55 3.50L37.55 3.50L37.55 3.50Q37.88 3.51 38.02 3.51L38.02 3.51L38.26 3.51L38.26 3.51Q38.46 3.51 39.00 3.47L39.00 3.47L39.13 3.47L39.13 3.47Q39.31 3.47 39.31 3.61L39.31 3.61L39.31 3.61Q39.31 3.75 39.05 3.84L39.05 3.84L39.05 3.84Q38.78 3.92 38.68 4.02L38.68 4.02L38.68 4.02Q38.46 4.24 38.29 4.66L38.29 4.66L38.29 4.66Q38.00 5.38 37.59 6.33L37.59 6.33L37.59 6.33Q37.17 7.31 37.10 7.50L37.10 7.50L37.10 7.50Q37.03 7.70 37.03 7.85L37.03 7.85L37.03 7.85Q37.03 7.97 37.88 9.87L37.88 9.87L37.88 9.87Q38.74 11.77 38.89 11.77L38.89 11.77L38.89 11.77Q39.06 11.77 40.52 8.24L40.52 8.24L40.52 8.24Q41.99 4.70 41.99 4.35L41.99 4.35L41.99 4.35Q41.99 4.13 41.83 4.01L41.83 4.01L41.83 4.01Q41.66 3.89 41.47 3.87L41.47 3.87L41.47 3.87Q41.27 3.85 41.11 3.80L41.11 3.80L41.11 3.80Q40.95 3.75 40.95 3.64L40.95 3.64L40.95 3.64Q40.95 3.54 40.99 3.52L40.99 3.52L40.99 3.52Q41.03 3.50 41.22 3.50L41.22 3.50L41.22 3.50Q41.26 3.50 41.54 3.51L41.54 3.51L41.54 3.51Q41.82 3.51 42.10 3.51L42.10 3.51L42.10 3.51Q42.35 3.51 42.66 3.50L42.66 3.50L42.66 3.50Q42.98 3.49 43.34 3.49L43.34 3.49L43.34 3.49Q43.62 3.49 43.62 3.68L43.62 3.68L43.62 3.68Q43.62 3.78 43.55 3.84L43.55 3.84L43.55 3.84Q43.47 3.89 43.32 3.98L43.32 3.98L43.32 3.98Q43.16 4.06 43.05 4.17L43.05 4.17L43.05 4.17Q42.98 4.24 42.93 4.31L42.93 4.31L42.93 4.31Q42.88 4.38 42.83 4.49L42.83 4.49L42.83 4.49Q42.77 4.59 42.73 4.66L42.73 4.66L42.73 4.66Q42.70 4.73 42.62 4.91L42.62 4.91L42.62 4.91Q42.55 5.08 42.50 5.18L42.50 5.18L42.50 5.18Q41.43 7.59 40.10 10.58L40.10 10.58L40.10 10.58Q39.03 13.01 38.84 13.41L38.84 13.41L38.84 13.41Q38.64 13.82 38.53 13.82L38.53 13.82L38.53 13.82Q38.46 13.82 38.36 13.64L38.36 13.64L38.36 13.64Q38.26 13.47 38.09 13.05L38.09 13.05L38.09 13.05Q37.91 12.64 37.88 12.57L37.88 12.57L37.88 12.57Q37.74 12.26 37.51 11.72L37.51 11.72L37.51 11.72Q37.28 11.17 37.12 10.79L37.12 10.79L37.12 10.79Q36.96 10.42 36.79 10.02L36.79 10.02L36.79 10.02Q36.62 9.63 36.51 9.43L36.51 9.43L36.51 9.43Q36.40 9.23 36.36 9.23L36.36 9.23L36.36 9.23Q36.22 9.23 35.41 11.16L35.41 11.16L35.41 11.16Q34.61 13.09 34.55 13.31L34.55 13.31L34.55 13.31Q34.54 13.37 34.52 13.43L34.52 13.43L34.52 13.43Q34.50 13.48 34.48 13.52L34.48 13.52L34.48 13.52Q34.47 13.57 34.45 13.61L34.45 13.61L34.45 13.61Q34.44 13.65 34.43 13.68L34.43 13.68L34.43 13.68Q34.41 13.71 34.41 13.73L34.41 13.73L34.41 13.73Q34.40 13.76 34.38 13.78L34.38 13.78L34.38 13.78Q34.37 13.80 34.36 13.82L34.36 13.82L34.36 13.82Q34.34 13.83 34.33 13.84L34.33 13.84L34.33 13.84Q34.31 13.85 34.30 13.85L34.30 13.85L34.30 13.85Q34.29 13.86 34.26 13.86L34.26 13.86L34.26 13.86Q34.13 13.86 33.95 13.46L33.95 13.46L33.95 13.46Q33.77 13.06 33.29 11.89L33.29 11.89L33.29 11.89Q32.82 10.72 32.33 9.65L32.33 9.65L32.33 9.65Q31.51 7.87 30.60 5.63L30.60 5.63L30.60 5.63Q30.34 4.96 30.03 4.57L30.03 4.57L30.03 4.57Q29.72 4.19 29.48 4.09L29.48 4.09L29.48 4.09Q29.25 3.99 29.05 3.98L29.05 3.98L29.05 3.98Q28.85 3.96 28.74 3.92L28.74 3.92L28.74 3.92Q28.63 3.88 28.63 3.71ZM51.17 3.65L51.17 3.65L51.17 3.65Q51.17 3.46 51.56 3.46L51.56 3.46L51.56 3.46Q51.62 3.46 51.74 3.47L51.74 3.47L51.74 3.47Q51.87 3.49 51.94 3.49L51.94 3.49L51.94 3.49Q51.98 3.49 53.26 3.52L53.26 3.52L53.26 3.52Q54.53 3.56 55.36 3.56L55.36 3.56L55.36 3.56Q55.65 3.56 56.80 3.53L56.80 3.53L56.80 3.53Q57.96 3.50 58.16 3.50L58.16 3.50L58.16 3.50Q58.42 3.50 58.42 3.82L58.42 3.82L58.42 3.82Q58.42 3.91 58.34 4.38L58.34 4.38L58.34 4.38Q58.25 4.84 58.25 5.25L58.25 5.25L58.25 5.25Q58.25 5.38 58.18 5.47L58.18 5.47L58.18 5.47Q58.11 5.56 58.03 5.56L58.03 5.56L58.03 5.56Q57.82 5.56 57.82 5.26L57.82 5.26L57.82 5.26Q57.82 4.89 57.58 4.58L57.58 4.58L57.58 4.58Q57.34 4.27 56.99 4.26L56.99 4.26L56.99 4.26Q55.73 4.16 55.06 4.16L55.06 4.16L54.70 4.16L54.70 4.16Q53.97 4.16 53.85 4.26L53.85 4.26L53.85 4.26Q53.73 4.37 53.70 5.01L53.70 5.01L53.70 5.01Q53.65 6.02 53.65 7.35L53.65 7.35L53.65 7.35Q53.65 8.05 53.91 8.06L53.91 8.06L54.26 8.06L54.85 8.06L55.29 8.06L55.29 8.06Q56.13 8.06 56.41 8.01L56.41 8.01L56.41 8.01Q56.69 7.95 56.91 7.80L56.91 7.80L56.91 7.80Q57.18 7.62 57.23 7.28L57.23 7.28L57.23 7.28Q57.27 7.04 57.43 7.04L57.43 7.04L57.43 7.04Q57.55 7.04 57.58 7.08L57.58 7.08L57.58 7.08Q57.61 7.13 57.61 7.27L57.61 7.27L57.61 7.27Q57.61 7.36 57.55 7.91L57.55 7.91L57.55 7.91Q57.50 8.46 57.50 8.74L57.50 8.74L57.50 8.74Q57.50 9.00 57.52 9.24L57.52 9.24L57.52 9.24Q57.54 9.48 57.54 9.59L57.54 9.59L57.54 9.59Q57.54 9.94 57.44 9.94L57.44 9.94L57.44 9.94Q57.23 9.94 57.13 9.60L57.13 9.60L57.13 9.60Q56.94 9.02 56.78 8.92L56.78 8.92L56.78 8.92Q56.49 8.72 55.44 8.72L55.44 8.72L55.44 8.72Q55.02 8.72 54.76 8.72L54.76 8.72L54.76 8.72Q54.50 8.72 54.42 8.71L54.42 8.71L54.42 8.71Q54.35 8.71 54.30 8.71L54.30 8.71L54.30 8.71Q54.25 8.71 54.21 8.71L54.21 8.71L54.21 8.71Q53.63 8.71 53.63 8.97L53.63 8.97L53.63 8.97Q53.63 9.38 53.62 9.99L53.62 9.99L53.62 9.99Q53.61 10.60 53.61 10.99L53.61 10.99L53.61 11.55L53.61 11.55Q53.61 12.56 53.94 12.66L53.94 12.66L53.94 12.66Q54.29 12.77 54.54 12.77L54.54 12.77L54.54 12.77Q55.59 12.77 56.38 12.67L56.38 12.67L56.38 12.67Q57.18 12.57 57.58 12.42L57.58 12.42L57.58 12.42Q57.97 12.28 58.24 12.10L58.24 12.10L58.24 12.10Q58.51 11.93 58.58 11.78L58.58 11.78L58.58 11.78Q58.66 11.63 58.74 11.54L58.74 11.54L58.74 11.54Q58.81 11.44 58.90 11.44L58.90 11.44L58.90 11.44Q59.07 11.44 59.07 11.68L59.07 11.68L59.07 11.68Q59.07 12.28 58.46 12.89L58.46 12.89L58.46 12.89Q57.86 13.51 57.41 13.51L57.41 13.51L57.41 13.51Q56.41 13.51 55.14 13.44L55.14 13.44L55.14 13.44Q53.87 13.37 53.56 13.37L53.56 13.37L53.56 13.37Q53.17 13.37 52.58 13.43L52.58 13.43L52.58 13.43Q52.00 13.50 51.66 13.50L51.66 13.50L51.66 13.50Q51.37 13.50 51.37 13.36L51.37 13.36L51.37 13.36Q51.37 13.23 51.37 13.19L51.37 13.19L51.37 13.19Q51.37 13.15 51.41 13.12L51.41 13.12L51.41 13.12Q51.45 13.09 51.50 13.08L51.50 13.08L51.50 13.08Q51.55 13.08 51.68 13.03L51.68 13.03L51.68 13.03Q51.81 12.99 51.97 12.92L51.97 12.92L51.97 12.92Q52.30 12.75 52.41 12.26L52.41 12.26L52.41 12.26Q52.51 11.77 52.51 10.21L52.51 10.21L52.51 8.47L52.51 8.47Q52.51 8.09 52.54 7.29L52.54 7.29L52.54 7.29Q52.56 6.50 52.56 6.05L52.56 6.05L52.56 6.05Q52.56 5.67 52.53 4.77L52.53 4.77L52.53 4.77Q52.51 4.37 52.18 4.14L52.18 4.14L52.18 4.14Q51.84 3.92 51.39 3.91L51.39 3.91L51.39 3.91Q51.17 3.91 51.17 3.65ZM66.63 3.72L66.63 3.72L66.63 3.72Q66.63 3.51 66.75 3.51L66.75 3.51L66.75 3.51Q66.79 3.51 66.93 3.52L66.93 3.52L66.93 3.52Q67.07 3.53 67.31 3.53L67.31 3.53L67.31 3.53Q67.59 3.53 68.42 3.52L68.42 3.52L68.42 3.52Q69.26 3.51 69.36 3.51L69.36 3.51L69.36 3.51Q69.68 3.51 70.17 3.49L70.17 3.49L70.17 3.49Q70.66 3.47 70.90 3.47L70.90 3.47L70.90 3.47Q72.17 3.47 73.02 4.08L73.02 4.08L73.02 4.08Q73.88 4.69 73.88 5.81L73.88 5.81L73.88 5.81Q73.88 6.22 73.73 6.57L73.73 6.57L73.73 6.57Q73.58 6.93 73.38 7.15L73.38 7.15L73.38 7.15Q73.18 7.38 72.98 7.54L72.98 7.54L72.98 7.54Q72.77 7.70 72.63 7.79L72.63 7.79L72.63 7.79Q72.48 7.88 72.48 7.90L72.48 7.90L72.48 7.90Q72.48 7.94 72.72 8.00L72.72 8.00L72.72 8.00Q72.95 8.06 73.29 8.21L73.29 8.21L73.29 8.21Q73.63 8.36 73.95 8.61L73.95 8.61L73.95 8.61Q74.28 8.86 74.52 9.36L74.52 9.36L74.52 9.36Q74.76 9.86 74.76 10.53L74.76 10.53L74.76 10.53Q74.76 11.13 74.41 11.82L74.41 11.82L74.41 11.82Q74.06 12.50 73.58 12.82L73.58 12.82L73.58 12.82Q72.97 13.26 72.44 13.40L72.44 13.40L72.44 13.40Q71.90 13.55 71.15 13.55L71.15 13.55L71.15 13.55Q70.59 13.55 69.66 13.47L69.66 13.47L69.66 13.47Q68.74 13.40 68.64 13.40L68.64 13.40L68.64 13.40Q68.49 13.40 68.09 13.43L68.09 13.43L68.09 13.43Q67.69 13.45 67.44 13.45L67.44 13.45L67.24 13.45L67.24 13.45Q66.95 13.45 66.95 13.24L66.95 13.24L66.95 13.24Q66.95 13.05 67.10 13.05L67.10 13.05L67.10 13.05Q67.19 13.05 67.28 13.04L67.28 13.04L67.28 13.04Q67.38 13.03 67.42 13.03L67.42 13.03L67.42 13.03Q67.55 13.03 67.67 12.94L67.67 12.94L67.67 12.94Q67.79 12.85 67.91 12.54L67.91 12.54L67.91 12.54Q68.04 12.22 68.05 11.73L68.05 11.73L68.05 11.73Q68.10 10.82 68.10 7.36L68.10 7.36L68.10 4.98L68.10 4.98Q68.10 4.89 68.06 4.75L68.06 4.75L68.06 4.75Q68.03 4.62 67.92 4.40L67.92 4.40L67.92 4.40Q67.82 4.19 67.54 4.04L67.54 4.04L67.54 4.04Q67.27 3.89 66.86 3.89L66.86 3.89L66.86 3.89Q66.63 3.89 66.63 3.72ZM69.16 12.15L69.16 12.15L69.16 12.15Q69.16 12.99 70.53 12.99L70.53 12.99L70.85 12.99L70.85 12.99Q71.61 12.99 72.06 12.92L72.06 12.92L72.06 12.92Q72.72 12.81 73.14 12.24L73.14 12.24L73.14 12.24Q73.57 11.66 73.57 10.86L73.57 10.86L73.57 10.86Q73.57 10.18 73.32 9.68L73.32 9.68L73.32 9.68Q73.07 9.18 72.74 8.93L72.74 8.93L72.74 8.93Q72.42 8.68 71.98 8.54L71.98 8.54L71.98 8.54Q71.54 8.40 71.30 8.37L71.30 8.37L71.30 8.37Q71.05 8.34 70.83 8.34L70.83 8.34L70.83 8.34Q70.38 8.34 70.09 8.34L70.09 8.34L70.09 8.34Q69.80 8.33 69.73 8.33L69.73 8.33L69.73 8.33Q69.65 8.33 69.60 8.32L69.60 8.32L69.60 8.32Q69.55 8.32 69.52 8.32L69.52 8.32L69.52 8.32Q69.40 8.32 69.34 8.35L69.34 8.35L69.34 8.35Q69.29 8.39 69.24 8.62L69.24 8.62L69.24 8.62Q69.19 8.85 69.18 9.28L69.18 9.28L69.18 9.28Q69.17 9.72 69.17 10.58L69.17 10.58L69.17 10.70L69.17 10.70Q69.17 11.21 69.17 11.54L69.17 11.54L69.17 11.54Q69.17 11.86 69.17 11.99L69.17 11.99L69.17 11.99Q69.16 12.12 69.16 12.15ZM69.24 5.40L69.24 5.81L69.24 5.81Q69.24 6.51 69.25 6.90L69.25 6.90L69.25 6.90Q69.26 7.29 69.29 7.50L69.29 7.50L69.29 7.50Q69.31 7.71 69.34 7.77L69.34 7.77L69.34 7.77Q69.37 7.83 69.43 7.83L69.43 7.83L69.43 7.83Q69.82 7.87 70.14 7.87L70.14 7.87L71.04 7.87L71.04 7.87Q71.92 7.87 72.36 7.41L72.36 7.41L72.36 7.41Q72.80 6.94 72.80 6.22L72.80 6.22L72.80 6.22Q72.80 5.43 72.06 4.70L72.06 4.70L72.06 4.70Q71.33 3.96 69.97 3.96L69.97 3.96L69.97 3.96Q69.54 3.96 69.39 4.22L69.39 4.22L69.39 4.22Q69.24 4.48 69.24 5.40L69.24 5.40ZM92.43 3.64L92.43 3.64L92.43 3.64Q92.43 3.51 92.55 3.49L92.55 3.49L92.55 3.49Q92.67 3.47 93.14 3.47L93.14 3.47L94.36 3.47L94.36 3.47Q94.71 3.47 95.65 3.44L95.65 3.44L95.65 3.44Q96.59 3.42 97.09 3.42L97.09 3.42L97.09 3.42Q98.06 3.42 99.02 3.71L99.02 3.71L99.02 3.71Q99.99 4.00 100.80 4.56L100.80 4.56L100.80 4.56Q101.61 5.11 102.12 6.00L102.12 6.00L102.12 6.00Q102.62 6.89 102.62 7.98L102.62 7.98L102.62 7.98Q102.62 8.96 102.49 9.68L102.49 9.68L102.49 9.68Q102.35 10.40 102.05 10.93L102.05 10.93L102.05 10.93Q101.74 11.45 101.43 11.78L101.43 11.78L101.43 11.78Q101.12 12.11 100.59 12.56L100.59 12.56L100.59 12.56Q100.17 12.89 99.37 13.19L99.37 13.19L99.37 13.19Q98.57 13.48 97.73 13.48L97.73 13.48L97.73 13.48Q97.65 13.48 96.31 13.45L96.31 13.45L96.31 13.45Q94.96 13.41 94.37 13.41L94.37 13.41L94.37 13.41Q93.88 13.41 93.46 13.45L93.46 13.45L93.46 13.45Q93.04 13.48 92.97 13.48L92.97 13.48L92.97 13.48Q92.64 13.48 92.64 13.30L92.64 13.30L92.64 13.30Q92.64 13.19 92.69 13.14L92.69 13.14L92.69 13.14Q92.74 13.09 92.90 13.05L92.90 13.05L92.90 13.05Q93.06 13.01 93.13 12.98L93.13 12.98L93.13 12.98Q93.35 12.88 93.54 12.61L93.54 12.61L93.54 12.61Q93.73 12.33 93.73 12.07L93.73 12.07L93.73 12.07Q93.73 11.28 93.74 10.07L93.74 10.07L93.74 10.07Q93.74 8.85 93.74 8.27L93.74 8.27L93.74 8.27Q93.74 7.77 93.74 6.70L93.74 6.70L93.74 6.70Q93.73 5.63 93.73 4.72L93.73 4.72L93.73 4.72Q93.73 4.48 93.50 4.23L93.50 4.23L93.50 4.23Q93.27 3.99 92.99 3.98L92.99 3.98L92.99 3.98Q92.79 3.96 92.70 3.95L92.70 3.95L92.70 3.95Q92.61 3.93 92.52 3.86L92.52 3.86L92.52 3.86Q92.43 3.78 92.43 3.64ZM94.91 11.47L94.91 11.47L94.91 11.47Q94.91 11.73 94.91 11.90L94.91 11.90L94.91 11.90Q94.92 12.07 94.97 12.21L94.97 12.21L94.97 12.21Q95.02 12.35 95.05 12.40L95.05 12.40L95.05 12.40Q95.07 12.46 95.21 12.53L95.21 12.53L95.21 12.53Q95.35 12.60 95.43 12.62L95.43 12.62L95.43 12.62Q95.51 12.64 95.76 12.71L95.76 12.71L95.76 12.71Q96.01 12.78 96.18 12.82L96.18 12.82L96.18 12.82Q96.67 12.96 97.20 12.96L97.20 12.96L97.48 12.96L97.48 12.96Q98.43 12.96 99.11 12.69L99.11 12.69L99.11 12.69Q99.78 12.42 100.39 11.83L100.39 11.83L100.39 11.83Q101.43 10.84 101.43 8.61L101.43 8.61L101.43 8.61Q101.43 7.49 100.99 6.58L100.99 6.58L100.99 6.58Q100.55 5.67 99.83 5.13L99.83 5.13L99.83 5.13Q99.12 4.59 98.29 4.30L98.29 4.30L98.29 4.30Q97.47 4.02 96.63 4.02L96.63 4.02L96.63 4.02Q96.25 4.02 96.08 4.02L96.08 4.02L96.08 4.02Q95.90 4.02 95.67 4.05L95.67 4.05L95.67 4.05Q95.44 4.09 95.36 4.11L95.36 4.11L95.36 4.11Q95.28 4.13 95.17 4.25L95.17 4.25L95.17 4.25Q95.06 4.37 95.04 4.45L95.04 4.45L95.04 4.45Q95.02 4.54 94.98 4.78L94.98 4.78L94.98 4.78Q94.95 5.03 94.95 5.21L94.95 5.21L94.95 5.21Q94.95 5.39 94.95 5.80L94.95 5.80L94.95 5.80Q94.95 6.10 94.93 7.24L94.93 7.24L94.93 7.24Q94.92 8.39 94.92 8.48L94.92 8.48L94.92 8.48Q94.92 9.32 94.91 10.30L94.91 10.30L94.91 10.30Q94.91 11.28 94.91 11.47ZM110.52 3.65L110.52 3.65L110.52 3.65Q110.52 3.46 110.91 3.46L110.91 3.46L110.91 3.46Q110.96 3.46 111.09 3.47L111.09 3.47L111.09 3.47Q111.22 3.49 111.29 3.49L111.29 3.49L111.29 3.49Q111.33 3.49 112.60 3.52L112.60 3.52L112.60 3.52Q113.88 3.56 114.70 3.56L114.70 3.56L114.70 3.56Q115.00 3.56 116.15 3.53L116.15 3.53L116.15 3.53Q117.31 3.50 117.50 3.50L117.50 3.50L117.50 3.50Q117.77 3.50 117.77 3.82L117.77 3.82L117.77 3.82Q117.77 3.91 117.68 4.38L117.68 4.38L117.68 4.38Q117.60 4.84 117.60 5.25L117.60 5.25L117.60 5.25Q117.60 5.38 117.53 5.47L117.53 5.47L117.53 5.47Q117.46 5.56 117.38 5.56L117.38 5.56L117.38 5.56Q117.17 5.56 117.17 5.26L117.17 5.26L117.17 5.26Q117.17 4.89 116.93 4.58L116.93 4.58L116.93 4.58Q116.69 4.27 116.34 4.26L116.34 4.26L116.34 4.26Q115.08 4.16 114.41 4.16L114.41 4.16L114.04 4.16L114.04 4.16Q113.32 4.16 113.20 4.26L113.20 4.26L113.20 4.26Q113.08 4.37 113.05 5.01L113.05 5.01L113.05 5.01Q112.99 6.02 112.99 7.35L112.99 7.35L112.99 7.35Q112.99 8.05 113.26 8.06L113.26 8.06L113.61 8.06L114.20 8.06L114.63 8.06L114.63 8.06Q115.47 8.06 115.75 8.01L115.75 8.01L115.75 8.01Q116.03 7.95 116.26 7.80L116.26 7.80L116.26 7.80Q116.52 7.62 116.58 7.28L116.58 7.28L116.58 7.28Q116.62 7.04 116.77 7.04L116.77 7.04L116.77 7.04Q116.90 7.04 116.93 7.08L116.93 7.08L116.93 7.08Q116.96 7.13 116.96 7.27L116.96 7.27L116.96 7.27Q116.96 7.36 116.90 7.91L116.90 7.91L116.90 7.91Q116.84 8.46 116.84 8.74L116.84 8.74L116.84 8.74Q116.84 9.00 116.86 9.24L116.86 9.24L116.86 9.24Q116.89 9.48 116.89 9.59L116.89 9.59L116.89 9.59Q116.89 9.94 116.79 9.94L116.79 9.94L116.79 9.94Q116.58 9.94 116.48 9.60L116.48 9.60L116.48 9.60Q116.28 9.02 116.13 8.92L116.13 8.92L116.13 8.92Q115.84 8.72 114.79 8.72L114.79 8.72L114.79 8.72Q114.37 8.72 114.11 8.72L114.11 8.72L114.11 8.72Q113.85 8.72 113.77 8.71L113.77 8.71L113.77 8.71Q113.69 8.71 113.64 8.71L113.64 8.71L113.64 8.71Q113.60 8.71 113.55 8.71L113.55 8.71L113.55 8.71Q112.98 8.71 112.98 8.97L112.98 8.97L112.98 8.97Q112.98 9.38 112.97 9.99L112.97 9.99L112.97 9.99Q112.95 10.60 112.95 10.99L112.95 10.99L112.95 11.55L112.95 11.55Q112.95 12.56 113.29 12.66L113.29 12.66L113.29 12.66Q113.64 12.77 113.89 12.77L113.89 12.77L113.89 12.77Q114.94 12.77 115.73 12.67L115.73 12.67L115.73 12.67Q116.52 12.57 116.92 12.42L116.92 12.42L116.92 12.42Q117.32 12.28 117.59 12.10L117.59 12.10L117.59 12.10Q117.85 11.93 117.93 11.78L117.93 11.78L117.93 11.78Q118.01 11.63 118.08 11.54L118.08 11.54L118.08 11.54Q118.16 11.44 118.24 11.44L118.24 11.44L118.24 11.44Q118.41 11.44 118.41 11.68L118.41 11.68L118.41 11.68Q118.41 12.28 117.81 12.89L117.81 12.89L117.81 12.89Q117.21 13.51 116.76 13.51L116.76 13.51L116.76 13.51Q115.75 13.51 114.48 13.44L114.48 13.44L114.48 13.44Q113.22 13.37 112.91 13.37L112.91 13.37L112.91 13.37Q112.52 13.37 111.93 13.43L111.93 13.43L111.93 13.43Q111.34 13.50 111.01 13.50L111.01 13.50L111.01 13.50Q110.71 13.50 110.71 13.36L110.71 13.36L110.71 13.36Q110.71 13.23 110.71 13.19L110.71 13.19L110.71 13.19Q110.71 13.15 110.75 13.12L110.75 13.12L110.75 13.12Q110.80 13.09 110.84 13.08L110.84 13.08L110.84 13.08Q110.89 13.08 111.03 13.03L111.03 13.03L111.03 13.03Q111.16 12.99 111.31 12.92L111.31 12.92L111.31 12.92Q111.65 12.75 111.75 12.26L111.75 12.26L111.75 12.26Q111.86 11.77 111.86 10.21L111.86 10.21L111.86 8.47L111.86 8.47Q111.86 8.09 111.88 7.29L111.88 7.29L111.88 7.29Q111.90 6.50 111.90 6.05L111.90 6.05L111.90 6.05Q111.90 5.67 111.87 4.77L111.87 4.77L111.87 4.77Q111.86 4.37 111.52 4.14L111.52 4.14L111.52 4.14Q111.19 3.92 110.74 3.91L110.74 3.91L110.74 3.91Q110.52 3.91 110.52 3.65ZM125.97 3.70L125.97 3.70L125.97 3.70Q125.97 3.50 126.36 3.50L126.36 3.50L126.36 3.50Q126.43 3.50 126.90 3.53L126.90 3.53L126.90 3.53Q127.37 3.56 127.90 3.56L127.90 3.56L127.90 3.56Q128.03 3.56 128.34 3.54L128.34 3.54L128.34 3.54Q128.66 3.53 128.81 3.53L128.81 3.53L128.81 3.53Q129.14 3.53 129.21 3.56L129.21 3.56L129.21 3.56Q129.28 3.58 129.28 3.68L129.28 3.68L129.28 3.68Q129.28 3.77 129.14 3.84L129.14 3.84L129.14 3.84Q129.00 3.91 128.85 4.02L128.85 4.02L128.85 4.02Q128.70 4.14 128.70 4.34L128.70 4.34L128.70 4.34Q128.70 4.52 128.75 4.71L128.75 4.71L128.75 4.71Q128.80 4.90 128.97 5.29L128.97 5.29L128.97 5.29Q129.14 5.68 129.31 6.08L129.31 6.08L129.31 6.08Q129.49 6.47 129.88 7.34L129.88 7.34L129.88 7.34Q130.28 8.22 130.66 9.07L130.66 9.07L130.66 9.07Q131.84 11.77 132.06 11.77L132.06 11.77L132.06 11.77Q132.13 11.77 132.87 10.08L132.87 10.08L132.87 10.08Q133.60 8.39 134.32 6.54L134.32 6.54L134.32 6.54Q135.03 4.69 135.03 4.35L135.03 4.35L135.03 4.35Q135.03 4.13 134.87 4.01L134.87 4.01L134.87 4.01Q134.71 3.89 134.53 3.87L134.53 3.87L134.53 3.87Q134.34 3.85 134.18 3.80L134.18 3.80L134.18 3.80Q134.02 3.75 134.02 3.64L134.02 3.64L134.02 3.64Q134.02 3.54 134.07 3.52L134.07 3.52L134.07 3.52Q134.12 3.50 134.32 3.50L134.32 3.50L134.32 3.50Q134.36 3.50 134.64 3.51L134.64 3.51L134.64 3.51Q134.92 3.51 135.20 3.51L135.20 3.51L135.20 3.51Q135.45 3.51 135.76 3.50L135.76 3.50L135.76 3.50Q136.08 3.49 136.44 3.49L136.44 3.49L136.44 3.49Q136.71 3.49 136.71 3.68L136.71 3.68L136.71 3.68Q136.71 3.78 136.62 3.85L136.62 3.85L136.62 3.85Q136.53 3.92 136.40 3.98L136.40 3.98L136.40 3.98Q136.28 4.03 136.11 4.21L136.11 4.21L136.11 4.21Q135.94 4.40 135.81 4.69L135.81 4.69L132.69 11.80L132.69 11.80Q132.36 12.56 132.03 13.34L132.03 13.34L132.03 13.34Q131.88 13.72 131.84 13.79L131.84 13.79L131.84 13.79Q131.80 13.86 131.73 13.86L131.73 13.86L131.73 13.86Q131.47 13.86 131.10 12.89L131.10 12.89L131.10 12.89Q130.73 11.98 129.65 9.65L129.65 9.65L129.65 9.65Q129.12 8.48 128.69 7.50L128.69 7.50L128.69 7.50Q128.25 6.52 128.06 6.06L128.06 6.06L128.06 6.06Q127.88 5.60 127.71 5.24L127.71 5.24L127.71 5.24Q127.55 4.87 127.47 4.72L127.47 4.72L127.47 4.72Q127.39 4.56 127.27 4.44L127.27 4.44L127.27 4.44Q127.04 4.17 126.78 4.06L126.78 4.06L126.78 4.06Q126.52 3.95 126.36 3.96L126.36 3.96L126.36 3.96Q126.20 3.96 126.08 3.91L126.08 3.91L126.08 3.91Q125.97 3.86 125.97 3.70ZM144.27 3.65L144.27 3.65L144.27 3.65Q144.27 3.46 144.66 3.46L144.66 3.46L144.66 3.46Q144.72 3.46 144.84 3.47L144.84 3.47L144.84 3.47Q144.97 3.49 145.04 3.49L145.04 3.49L145.04 3.49Q145.08 3.49 146.36 3.52L146.36 3.52L146.36 3.52Q147.63 3.56 148.46 3.56L148.46 3.56L148.46 3.56Q148.75 3.56 149.90 3.53L149.90 3.53L149.90 3.53Q151.06 3.50 151.26 3.50L151.26 3.50L151.26 3.50Q151.52 3.50 151.52 3.82L151.52 3.82L151.52 3.82Q151.52 3.91 151.44 4.38L151.44 4.38L151.44 4.38Q151.35 4.84 151.35 5.25L151.35 5.25L151.35 5.25Q151.35 5.38 151.28 5.47L151.28 5.47L151.28 5.47Q151.21 5.56 151.13 5.56L151.13 5.56L151.13 5.56Q150.92 5.56 150.92 5.26L150.92 5.26L150.92 5.26Q150.92 4.89 150.68 4.58L150.68 4.58L150.68 4.58Q150.44 4.27 150.09 4.26L150.09 4.26L150.09 4.26Q148.83 4.16 148.16 4.16L148.16 4.16L147.80 4.16L147.80 4.16Q147.07 4.16 146.95 4.26L146.95 4.26L146.95 4.26Q146.83 4.37 146.80 5.01L146.80 5.01L146.80 5.01Q146.75 6.02 146.75 7.35L146.75 7.35L146.75 7.35Q146.75 8.05 147.01 8.06L147.01 8.06L147.36 8.06L147.95 8.06L148.39 8.06L148.39 8.06Q149.23 8.06 149.51 8.01L149.51 8.01L149.51 8.01Q149.79 7.95 150.01 7.80L150.01 7.80L150.01 7.80Q150.28 7.62 150.33 7.28L150.33 7.28L150.33 7.28Q150.37 7.04 150.53 7.04L150.53 7.04L150.53 7.04Q150.65 7.04 150.68 7.08L150.68 7.08L150.68 7.08Q150.71 7.13 150.71 7.27L150.71 7.27L150.71 7.27Q150.71 7.36 150.65 7.91L150.65 7.91L150.65 7.91Q150.60 8.46 150.60 8.74L150.60 8.74L150.60 8.74Q150.60 9.00 150.62 9.24L150.62 9.24L150.62 9.24Q150.64 9.48 150.64 9.59L150.64 9.59L150.64 9.59Q150.64 9.94 150.54 9.94L150.54 9.94L150.54 9.94Q150.33 9.94 150.23 9.60L150.23 9.60L150.23 9.60Q150.04 9.02 149.88 8.92L149.88 8.92L149.88 8.92Q149.59 8.72 148.54 8.72L148.54 8.72L148.54 8.72Q148.12 8.72 147.86 8.72L147.86 8.72L147.86 8.72Q147.60 8.72 147.52 8.71L147.52 8.71L147.52 8.71Q147.45 8.71 147.40 8.71L147.40 8.71L147.40 8.71Q147.35 8.71 147.31 8.71L147.31 8.71L147.31 8.71Q146.73 8.71 146.73 8.97L146.73 8.97L146.73 8.97Q146.73 9.38 146.72 9.99L146.72 9.99L146.72 9.99Q146.71 10.60 146.71 10.99L146.71 10.99L146.71 11.55L146.71 11.55Q146.71 12.56 147.04 12.66L147.04 12.66L147.04 12.66Q147.39 12.77 147.64 12.77L147.64 12.77L147.64 12.77Q148.69 12.77 149.48 12.67L149.48 12.67L149.48 12.67Q150.28 12.57 150.67 12.42L150.67 12.42L150.67 12.42Q151.07 12.28 151.34 12.10L151.34 12.10L151.34 12.10Q151.61 11.93 151.68 11.78L151.68 11.78L151.68 11.78Q151.76 11.63 151.84 11.54L151.84 11.54L151.84 11.54Q151.91 11.44 152.00 11.44L152.00 11.44L152.00 11.44Q152.17 11.44 152.17 11.68L152.17 11.68L152.17 11.68Q152.17 12.28 151.56 12.89L151.56 12.89L151.56 12.89Q150.96 13.51 150.51 13.51L150.51 13.51L150.51 13.51Q149.51 13.51 148.24 13.44L148.24 13.44L148.24 13.44Q146.97 13.37 146.66 13.37L146.66 13.37L146.66 13.37Q146.27 13.37 145.68 13.43L145.68 13.43L145.68 13.43Q145.10 13.50 144.76 13.50L144.76 13.50L144.76 13.50Q144.47 13.50 144.47 13.36L144.47 13.36L144.47 13.36Q144.47 13.23 144.47 13.19L144.47 13.19L144.47 13.19Q144.47 13.15 144.51 13.12L144.51 13.12L144.51 13.12Q144.55 13.09 144.60 13.08L144.60 13.08L144.60 13.08Q144.65 13.08 144.78 13.03L144.78 13.03L144.78 13.03Q144.91 12.99 145.07 12.92L145.07 12.92L145.07 12.92Q145.40 12.75 145.51 12.26L145.51 12.26L145.51 12.26Q145.61 11.77 145.61 10.21L145.61 10.21L145.61 8.47L145.61 8.47Q145.61 8.09 145.63 7.29L145.63 7.29L145.63 7.29Q145.66 6.50 145.66 6.05L145.66 6.05L145.66 6.05Q145.66 5.67 145.63 4.77L145.63 4.77L145.63 4.77Q145.61 4.37 145.28 4.14L145.28 4.14L145.28 4.14Q144.94 3.92 144.49 3.91L144.49 3.91L144.49 3.91Q144.27 3.91 144.27 3.65ZM159.73 3.71L159.73 3.71L159.73 3.71Q159.73 3.46 160.10 3.46L160.10 3.46L160.10 3.46Q160.16 3.46 160.29 3.47L160.29 3.47L160.29 3.47Q160.41 3.49 160.48 3.49L160.48 3.49L160.48 3.49Q160.62 3.49 161.01 3.51L161.01 3.51L161.01 3.51Q161.39 3.54 161.70 3.54L161.70 3.54L161.70 3.54Q162.13 3.54 162.62 3.51L162.62 3.51L162.62 3.51Q163.11 3.49 163.17 3.49L163.17 3.49L163.17 3.49Q163.41 3.49 163.41 3.63L163.41 3.63L163.41 3.63Q163.41 3.82 163.24 3.88L163.24 3.88L163.24 3.88Q163.07 3.95 162.87 3.97L162.87 3.97L162.87 3.97Q162.67 3.99 162.48 4.28L162.48 4.28L162.48 4.28Q162.29 4.56 162.26 5.14L162.26 5.14L162.26 5.14Q162.23 5.68 162.19 8.19L162.19 8.19L162.19 8.19Q162.15 10.70 162.15 10.99L162.15 10.99L162.15 11.55L162.15 11.55Q162.15 12.56 162.48 12.66L162.48 12.66L162.48 12.66Q162.83 12.77 163.09 12.77L163.09 12.77L163.09 12.77Q164.14 12.77 164.93 12.67L164.93 12.67L164.93 12.67Q165.72 12.57 166.12 12.42L166.12 12.42L166.12 12.42Q166.52 12.28 166.78 12.10L166.78 12.10L166.78 12.10Q167.05 11.93 167.12 11.78L167.12 11.78L167.12 11.78Q167.20 11.63 167.28 11.54L167.28 11.54L167.28 11.54Q167.36 11.44 167.44 11.44L167.44 11.44L167.44 11.44Q167.61 11.44 167.61 11.68L167.61 11.68L167.61 11.68Q167.61 12.28 167.01 12.89L167.01 12.89L167.01 12.89Q166.40 13.51 165.96 13.51L165.96 13.51L165.96 13.51Q164.95 13.51 163.68 13.44L163.68 13.44L163.68 13.44Q162.41 13.37 162.11 13.37L162.11 13.37L162.11 13.37Q161.71 13.37 161.20 13.43L161.20 13.43L161.20 13.43Q160.69 13.48 160.36 13.48L160.36 13.48L160.36 13.48Q159.95 13.48 159.95 13.31L159.95 13.31L159.95 13.31Q159.95 13.22 160.03 13.15L160.03 13.15L160.03 13.15Q160.10 13.09 160.17 13.09L160.17 13.09L160.17 13.09Q160.38 13.09 160.58 12.95L160.58 12.95L160.58 12.95Q160.83 12.75 160.94 12.23L160.94 12.23L160.94 12.23Q161.06 11.70 161.06 10.21L161.06 10.21L161.06 8.47L161.06 8.47Q161.06 8.09 161.08 7.29L161.08 7.29L161.08 7.29Q161.10 6.50 161.10 6.05L161.10 6.05L161.10 6.05Q161.10 5.67 161.07 4.77L161.07 4.77L161.07 4.77Q161.06 4.37 160.72 4.14L160.72 4.14L160.72 4.14Q160.38 3.92 159.94 3.91L159.94 3.91L159.94 3.91Q159.80 3.91 159.76 3.86L159.76 3.86L159.76 3.86Q159.73 3.81 159.73 3.71ZM175.50 8.69L175.50 8.69L175.50 8.69Q175.50 6.34 176.92 4.84L176.92 4.84L176.92 4.84Q178.33 3.33 180.92 3.33L180.92 3.33L180.92 3.33Q182.13 3.33 183.09 3.68L183.09 3.68L183.09 3.68Q184.06 4.03 184.62 4.54L184.62 4.54L184.62 4.54Q185.18 5.05 185.56 5.71L185.56 5.71L185.56 5.71Q185.93 6.37 186.07 6.92L186.07 6.92L186.07 6.92Q186.21 7.48 186.21 7.95L186.21 7.95L186.21 7.95Q186.21 9.86 185.47 11.16L185.47 11.16L185.47 11.16Q184.73 12.47 183.52 13.07L183.52 13.07L183.52 13.07Q182.31 13.66 180.73 13.66L180.73 13.66L180.73 13.66Q179.06 13.66 177.85 12.94L177.85 12.94L177.85 12.94Q176.64 12.21 176.07 11.10L176.07 11.10L176.07 11.10Q175.50 10.00 175.50 8.69ZM176.74 7.98L176.74 7.98L176.74 7.98Q176.74 8.54 176.89 9.19L176.89 9.19L176.89 9.19Q177.04 9.84 177.39 10.54L177.39 10.54L177.39 10.54Q177.74 11.23 178.24 11.78L178.24 11.78L178.24 11.78Q178.74 12.33 179.50 12.69L179.50 12.69L179.50 12.69Q180.26 13.05 181.17 13.05L181.17 13.05L181.17 13.05Q181.65 13.05 182.17 12.90L182.17 12.90L182.17 12.90Q182.70 12.75 183.22 12.45L183.22 12.45L183.22 12.45Q183.74 12.14 184.14 11.70L184.14 11.70L184.14 11.70Q184.55 11.26 184.81 10.62L184.81 10.62L184.81 10.62Q185.07 9.98 185.07 9.24L185.07 9.24L185.07 9.24Q185.07 6.71 183.74 5.30L183.74 5.30L183.74 5.30Q182.41 3.89 180.45 3.89L180.45 3.89L180.45 3.89Q178.91 3.89 177.82 4.93L177.82 4.93L177.82 4.93Q176.74 5.96 176.74 7.98ZM194.11 3.72L194.11 3.72L194.11 3.72Q194.11 3.50 194.43 3.50L194.43 3.50L194.43 3.50Q194.47 3.50 194.59 3.49L194.59 3.49L194.59 3.49Q194.70 3.49 194.95 3.49L194.95 3.49L194.95 3.49Q195.02 3.49 195.33 3.51L195.33 3.51L195.33 3.51Q195.65 3.53 195.79 3.53L195.79 3.53L195.79 3.53Q196.10 3.53 196.98 3.51L196.98 3.51L196.98 3.51Q197.86 3.49 198.10 3.49L198.10 3.49L198.10 3.49Q199.42 3.49 200.37 4.15L200.37 4.15L200.37 4.15Q201.32 4.82 201.32 6.06L201.32 6.06L201.32 6.06Q201.32 6.75 201.07 7.29L201.07 7.29L201.07 7.29Q200.82 7.83 200.46 8.13L200.46 8.13L200.46 8.13Q200.10 8.44 199.66 8.64L199.66 8.64L199.66 8.64Q199.22 8.85 198.88 8.91L198.88 8.91L198.88 8.91Q198.53 8.97 198.27 8.97L198.27 8.97L198.27 8.97Q197.82 8.97 197.36 8.87L197.36 8.87L197.36 8.87Q196.90 8.76 196.90 8.65L196.90 8.65L196.90 8.65Q196.90 8.44 197.08 8.44L197.08 8.44L197.08 8.44Q197.15 8.44 197.36 8.50L197.36 8.50L197.36 8.50Q197.58 8.55 197.79 8.55L197.79 8.55L197.79 8.55Q198.11 8.55 198.48 8.46L198.48 8.46L198.48 8.46Q198.84 8.37 199.23 8.17L199.23 8.17L199.23 8.17Q199.63 7.97 199.88 7.55L199.88 7.55L199.88 7.55Q200.13 7.14 200.13 6.59L200.13 6.59L200.13 6.59Q200.13 5.66 199.37 4.85L199.37 4.85L199.37 4.85Q198.62 4.05 197.29 4.05L197.29 4.05L197.29 4.05Q196.85 4.05 196.70 4.30L196.70 4.30L196.70 4.30Q196.55 4.56 196.55 5.47L196.55 5.47L196.55 5.47Q196.55 8.39 196.53 8.80L196.53 8.80L196.53 8.80Q196.52 9.21 196.52 11.26L196.52 11.26L196.52 11.26Q196.52 12.49 197.09 12.87L197.09 12.87L197.09 12.87Q197.25 12.96 197.48 12.99L197.48 12.99L197.48 12.99Q197.71 13.02 197.86 13.01L197.86 13.01L197.86 13.01Q198.02 13.01 198.13 13.07L198.13 13.07L198.13 13.07Q198.25 13.13 198.25 13.30L198.25 13.30L198.25 13.30Q198.25 13.54 197.93 13.54L197.93 13.54L197.93 13.54Q197.61 13.54 196.80 13.50L196.80 13.50L196.80 13.50Q195.99 13.47 195.93 13.47L195.93 13.47L195.93 13.47Q195.79 13.47 195.38 13.50L195.38 13.50L195.38 13.50Q194.96 13.52 194.63 13.52L194.63 13.52L194.63 13.52Q194.19 13.52 194.19 13.37L194.19 13.37L194.19 13.37Q194.19 13.29 194.21 13.23L194.21 13.23L194.21 13.23Q194.24 13.17 194.26 13.14L194.26 13.14L194.26 13.14Q194.28 13.10 194.35 13.08L194.35 13.08L194.35 13.08Q194.42 13.05 194.45 13.03L194.45 13.03L194.45 13.03Q194.47 13.02 194.58 13.00L194.58 13.00L194.58 13.00Q194.68 12.98 194.73 12.96L194.73 12.96L194.73 12.96Q194.75 12.95 194.81 12.94L194.81 12.94L194.81 12.94Q194.87 12.94 194.89 12.93L194.89 12.93L194.89 12.93Q194.91 12.92 194.96 12.89L194.96 12.89L194.96 12.89Q195.01 12.85 195.03 12.79L195.03 12.79L195.03 12.79Q195.06 12.73 195.11 12.62L195.11 12.62L195.11 12.62Q195.16 12.52 195.22 12.35L195.22 12.35L195.22 12.35Q195.31 12.08 195.37 10.25L195.37 10.25L195.37 10.25Q195.43 8.41 195.43 7.41L195.43 7.41L195.43 7.41Q195.43 6.54 195.42 5.80L195.42 5.80L195.42 5.80Q195.41 5.07 195.41 5.03L195.41 5.03L195.41 5.03Q195.41 4.65 195.17 4.28L195.17 4.28L195.17 4.28Q194.94 3.91 194.39 3.91L194.39 3.91L194.39 3.91Q194.11 3.91 194.11 3.72ZM209.01 3.65L209.01 3.65L209.01 3.65Q209.01 3.46 209.40 3.46L209.40 3.46L209.40 3.46Q209.45 3.46 209.58 3.47L209.58 3.47L209.58 3.47Q209.71 3.49 209.78 3.49L209.78 3.49L209.78 3.49Q209.82 3.49 211.09 3.52L211.09 3.52L211.09 3.52Q212.37 3.56 213.19 3.56L213.19 3.56L213.19 3.56Q213.49 3.56 214.64 3.53L214.64 3.53L214.64 3.53Q215.80 3.50 215.99 3.50L215.99 3.50L215.99 3.50Q216.26 3.50 216.26 3.82L216.26 3.82L216.26 3.82Q216.26 3.91 216.17 4.38L216.17 4.38L216.17 4.38Q216.09 4.84 216.09 5.25L216.09 5.25L216.09 5.25Q216.09 5.38 216.02 5.47L216.02 5.47L216.02 5.47Q215.95 5.56 215.87 5.56L215.87 5.56L215.87 5.56Q215.66 5.56 215.66 5.26L215.66 5.26L215.66 5.26Q215.66 4.89 215.42 4.58L215.42 4.58L215.42 4.58Q215.18 4.27 214.83 4.26L214.83 4.26L214.83 4.26Q213.57 4.16 212.90 4.16L212.90 4.16L212.53 4.16L212.53 4.16Q211.81 4.16 211.69 4.26L211.69 4.26L211.69 4.26Q211.57 4.37 211.54 5.01L211.54 5.01L211.54 5.01Q211.48 6.02 211.48 7.35L211.48 7.35L211.48 7.35Q211.48 8.05 211.75 8.06L211.75 8.06L212.10 8.06L212.69 8.06L213.12 8.06L213.12 8.06Q213.96 8.06 214.24 8.01L214.24 8.01L214.24 8.01Q214.52 7.95 214.75 7.80L214.75 7.80L214.75 7.80Q215.01 7.62 215.07 7.28L215.07 7.28L215.07 7.28Q215.11 7.04 215.26 7.04L215.26 7.04L215.26 7.04Q215.39 7.04 215.42 7.08L215.42 7.08L215.42 7.08Q215.45 7.13 215.45 7.27L215.45 7.27L215.45 7.27Q215.45 7.36 215.39 7.91L215.39 7.91L215.39 7.91Q215.33 8.46 215.33 8.74L215.33 8.74L215.33 8.74Q215.33 9.00 215.35 9.24L215.35 9.24L215.35 9.24Q215.38 9.48 215.38 9.59L215.38 9.59L215.38 9.59Q215.38 9.94 215.28 9.94L215.28 9.94L215.28 9.94Q215.07 9.94 214.97 9.60L214.97 9.60L214.97 9.60Q214.77 9.02 214.62 8.92L214.62 8.92L214.62 8.92Q214.33 8.72 213.28 8.72L213.28 8.72L213.28 8.72Q212.86 8.72 212.60 8.72L212.60 8.72L212.60 8.72Q212.34 8.72 212.26 8.71L212.26 8.71L212.26 8.71Q212.18 8.71 212.13 8.71L212.13 8.71L212.13 8.71Q212.09 8.71 212.04 8.71L212.04 8.71L212.04 8.71Q211.47 8.71 211.47 8.97L211.47 8.97L211.47 8.97Q211.47 9.38 211.46 9.99L211.46 9.99L211.46 9.99Q211.44 10.60 211.44 10.99L211.44 10.99L211.44 11.55L211.44 11.55Q211.44 12.56 211.78 12.66L211.78 12.66L211.78 12.66Q212.13 12.77 212.38 12.77L212.38 12.77L212.38 12.77Q213.43 12.77 214.22 12.67L214.22 12.67L214.22 12.67Q215.01 12.57 215.41 12.42L215.41 12.42L215.41 12.42Q215.81 12.28 216.08 12.10L216.08 12.10L216.08 12.10Q216.34 11.93 216.42 11.78L216.42 11.78L216.42 11.78Q216.50 11.63 216.57 11.54L216.57 11.54L216.57 11.54Q216.65 11.44 216.73 11.44L216.73 11.44L216.73 11.44Q216.90 11.44 216.90 11.68L216.90 11.68L216.90 11.68Q216.90 12.28 216.30 12.89L216.30 12.89L216.30 12.89Q215.70 13.51 215.25 13.51L215.25 13.51L215.25 13.51Q214.24 13.51 212.97 13.44L212.97 13.44L212.97 13.44Q211.71 13.37 211.40 13.37L211.40 13.37L211.40 13.37Q211.01 13.37 210.42 13.43L210.42 13.43L210.42 13.43Q209.83 13.50 209.50 13.50L209.50 13.50L209.50 13.50Q209.20 13.50 209.20 13.36L209.20 13.36L209.20 13.36Q209.20 13.23 209.20 13.19L209.20 13.19L209.20 13.19Q209.20 13.15 209.24 13.12L209.24 13.12L209.24 13.12Q209.29 13.09 209.33 13.08L209.33 13.08L209.33 13.08Q209.38 13.08 209.52 13.03L209.52 13.03L209.52 13.03Q209.65 12.99 209.80 12.92L209.80 12.92L209.80 12.92Q210.14 12.75 210.24 12.26L210.24 12.26L210.24 12.26Q210.35 11.77 210.35 10.21L210.35 10.21L210.35 8.47L210.35 8.47Q210.35 8.09 210.37 7.29L210.37 7.29L210.37 7.29Q210.39 6.50 210.39 6.05L210.39 6.05L210.39 6.05Q210.39 5.67 210.36 4.77L210.36 4.77L210.36 4.77Q210.35 4.37 210.01 4.14L210.01 4.14L210.01 4.14Q209.68 3.92 209.23 3.91L209.23 3.91L209.23 3.91Q209.01 3.91 209.01 3.65ZM224.46 3.70L224.46 3.70L224.46 3.70Q224.46 3.47 224.87 3.47L224.87 3.47L227.19 3.47L227.19 3.47Q227.51 3.47 227.93 3.45L227.93 3.45L227.93 3.45Q228.35 3.43 228.59 3.43L228.59 3.43L228.59 3.43Q229.85 3.43 230.75 4.07L230.75 4.07L230.75 4.07Q231.64 4.70 231.64 5.78L231.64 5.78L231.64 5.78Q231.64 6.50 231.37 7.03L231.37 7.03L231.37 7.03Q231.10 7.57 230.77 7.81L230.77 7.81L230.77 7.81Q230.44 8.05 230.17 8.22L230.17 8.22L230.17 8.22Q229.89 8.40 229.89 8.46L229.89 8.46L229.89 8.46Q229.89 8.62 231.07 10.27L231.07 10.27L231.07 10.27Q232.25 11.91 232.68 12.38L232.68 12.38L232.68 12.38Q233.21 13.03 233.97 13.03L233.97 13.03L233.97 13.03Q234.16 13.03 234.16 13.20L234.16 13.20L234.16 13.20Q234.16 13.41 234.00 13.48L234.00 13.48L234.00 13.48Q233.83 13.55 233.13 13.55L233.13 13.55L233.13 13.55Q232.47 13.55 231.92 13.23L231.92 13.23L231.92 13.23Q231.22 12.82 229.56 10.09L229.56 10.09L229.56 10.09Q229.46 9.94 229.42 9.87L229.42 9.87L229.42 9.87Q228.75 8.78 228.38 8.78L228.38 8.78L228.09 8.78L227.23 8.78L227.23 8.78Q227.07 8.78 227.03 8.92L227.03 8.92L227.03 8.92Q227.00 9.06 227.00 9.77L227.00 9.77L227.00 9.77Q227.00 10.44 227.00 10.88L227.00 10.88L227.00 10.88Q227.00 11.31 227.00 11.43L227.00 11.43L227.00 11.43Q227.01 11.55 227.01 11.63L227.01 11.63L227.01 11.63Q227.01 11.70 227.01 11.75L227.01 11.75L227.01 11.75Q227.01 12.32 227.28 12.63L227.28 12.63L227.28 12.63Q227.54 12.95 227.87 13.00L227.87 13.00L227.87 13.00Q228.20 13.05 228.47 13.11L228.47 13.11L228.47 13.11Q228.73 13.17 228.73 13.31L228.73 13.31L228.73 13.31Q228.73 13.54 228.48 13.54L228.48 13.54L228.48 13.54Q228.47 13.54 227.51 13.49L227.51 13.49L227.51 13.49Q226.56 13.44 226.48 13.44L226.48 13.44L226.48 13.44Q226.07 13.44 225.51 13.47L225.51 13.47L225.51 13.47Q224.95 13.50 224.94 13.50L224.94 13.50L224.94 13.50Q224.64 13.50 224.64 13.27L224.64 13.27L224.64 13.27Q224.64 13.12 224.83 13.05L224.83 13.05L224.83 13.05Q225.01 12.99 225.23 12.96L225.23 12.96L225.23 12.96Q225.46 12.94 225.64 12.66L225.64 12.66L225.64 12.66Q225.82 12.38 225.82 11.86L225.82 11.86L225.82 11.86Q225.82 11.49 225.83 9.90L225.83 9.90L225.83 9.90Q225.83 8.30 225.83 7.45L225.83 7.45L225.83 7.45Q225.83 6.58 225.83 5.86L225.83 5.86L225.83 5.86Q225.82 5.14 225.82 5.08L225.82 5.08L225.82 5.08Q225.82 4.56 225.61 4.29L225.61 4.29L225.61 4.29Q225.40 4.02 225.14 3.98L225.14 3.98L225.14 3.98Q224.88 3.95 224.67 3.89L224.67 3.89L224.67 3.89Q224.46 3.84 224.46 3.70ZM227.00 5.54L227.00 5.94L227.00 5.94Q227.00 7.38 227.01 7.72L227.01 7.72L227.01 7.72Q227.02 8.06 227.11 8.12L227.11 8.12L227.11 8.12Q227.32 8.25 227.71 8.25L227.71 8.25L227.85 8.25L228.26 8.25L228.26 8.25Q229.45 8.25 229.96 7.70L229.96 7.70L229.96 7.70Q230.47 7.15 230.47 6.30L230.47 6.30L230.47 6.30Q230.47 5.43 229.79 4.72L229.79 4.72L229.79 4.72Q229.11 4.00 227.74 4.00L227.74 4.00L227.74 4.00Q227.22 4.00 227.11 4.28L227.11 4.28L227.11 4.28Q227.00 4.55 227.00 5.54L227.00 5.54Z"></path></g></svg>